<svg width="60" height="50" viewBox="0 0 60 50" fill="none" xmlns="http://www.w3.org/2000/svg">
<g clip-path="url(#clip0_6_144)">
<path d="M59.856 1.321V48.795C59.478 49.549 58.711 50.057 57.825 50.057C57.761 50.057 57.698 50.054 57.635 50.049L57.643 50.05H2.207C2.141 50.058 2.064 50.062 1.986 50.062C0.889 50.062 0 49.173 0 48.076C0 47.998 0.004 47.921 0.013 47.845L0.012 47.854C0.012 32.6273 0.012 17.401 0.012 2.175C0.007 2.12 0.003 2.056 0.003 1.991C0.003 0.894 0.892 0.005 1.989 0.005C2.06 0.005 2.129 0.009 2.198 0.016L2.189 0.015C20.679 0.015 39.1577 0.015 57.625 0.015C57.7 0.006 57.787 0 57.876 0C58.763 0 59.524 0.539 59.85 1.307L59.855 1.321H59.856ZM22.557 24.997V30.589C22.558 30.955 22.609 31.309 22.703 31.645L22.696 31.617C23.051 32.517 23.914 33.142 24.922 33.142C25.432 33.142 25.905 32.982 26.293 32.709L26.285 32.714C29.613 30.798 32.905 28.864 36.198 26.913C36.878 26.545 37.331 25.837 37.331 25.023C37.331 24.209 36.877 23.501 36.209 23.138L36.198 23.132C32.905 21.111 29.526 19.177 26.146 17.226C25.793 17.006 25.364 16.875 24.905 16.875C23.596 16.875 22.536 17.936 22.536 19.244C22.536 19.294 22.538 19.344 22.541 19.393V19.386C22.663 21.25 22.558 23.132 22.558 24.996L22.557 24.997ZM9.456 6.565V3.586H3.585V6.565H9.456ZM3.497 46.39H9.455V43.463H3.497V46.39ZM18.846 3.585H13.079V6.547H18.846V3.585ZM22.469 3.585V6.547H28.253V3.498L22.469 3.585ZM37.626 6.565V3.586H31.859V6.548L37.626 6.565ZM47.051 3.585H41.232V6.547H47.051V3.585ZM37.644 46.408V43.568H31.86V46.495L37.644 46.408ZM18.828 46.408V43.568H13.061V46.495L18.828 46.408ZM28.253 46.408V43.568H22.486V46.512L28.253 46.408ZM47.051 43.463H41.232V46.39H47.051V43.463ZM56.302 6.565V3.499H50.64V6.565H56.302ZM56.302 43.463H50.64V46.407H56.319L56.302 43.463Z" fill="#BDAE82"/>
</g>
<defs>
<clipPath id="clip0_6_144">
<rect width="60" height="50" fill="white"/>
</clipPath>
</defs>
</svg>
